<svg width="41" height="51" viewBox="0 0 41 50" fill="none" xmlns="http://www.w3.org/2000/svg">
<path d="M19.8505 37.8194C19.1531 37.8194 18.5553 37.5687 18.0571 37.0671C17.5589 36.5656 17.3098 35.9738 17.3098 35.2917H22.3913C22.3913 35.9738 22.1422 36.5656 21.644 37.0671C21.1458 37.5687 20.548 37.8194 19.8505 37.8194ZM28.1304 30.1157L30.7011 32.7037V33.9676H9V32.7037L11.5707 30.1157V23.0741C11.5707 21.108 12.1685 19.3727 13.3641 17.868C14.5598 16.3634 16.0743 15.3904 17.9076 14.9491V14.1065C17.9076 13.5447 18.0969 13.0833 18.4755 12.7222C18.8542 12.3611 19.3125 12.1805 19.8505 12.1805C20.3886 12.1805 20.837 12.3611 21.1957 12.7222C21.5543 13.0833 21.7337 13.5447 21.7337 14.1065V14.9491C23.6069 15.3904 25.1413 16.3634 26.337 17.868C27.5326 19.3727 28.1304 21.108 28.1304 23.0741V30.1157ZM25.5598 31.4398V23.0741C25.5598 21.4691 25.0018 20.1049 23.8859 18.9815C22.7699 17.858 21.4149 17.2963 19.8207 17.2963C18.2264 17.2963 16.8714 17.858 15.7554 18.9815C14.6395 20.1049 14.0815 21.4691 14.0815 23.0741V31.4398H25.5598Z" fill="white"/>
<path d="M29 24.25C31.8995 24.25 34.25 21.8995 34.25 19C34.25 16.1005 31.8995 13.75 29 13.75C26.1005 13.75 23.75 16.1005 23.75 19C23.75 21.8995 26.1005 24.25 29 24.25Z" fill="#1DE9B6" stroke="#371F80" stroke-width="2.5"/>
</svg>