<svg width="32" height="32" viewBox="0 0 32 32" fill="none" xmlns="http://www.w3.org/2000/svg">
<circle cx="16" cy="16" r="16" fill="#6A52B3"/>
<path d="M13.7109 17.1797H9.13281V22H7.15625V10.625H14.3828V12.2188H9.13281V15.6016H13.7109V17.1797ZM15.9531 22V10.625H19.8516C21.138 10.625 22.1172 10.8828 22.7891 11.3984C23.4609 11.9141 23.7969 12.6823 23.7969 13.7031C23.7969 14.224 23.6562 14.6927 23.375 15.1094C23.0938 15.526 22.6823 15.849 22.1406 16.0781C22.7552 16.2448 23.2292 16.5599 23.5625 17.0234C23.901 17.4818 24.0703 18.0339 24.0703 18.6797C24.0703 19.7474 23.7266 20.5677 23.0391 21.1406C22.3568 21.7135 21.3776 22 20.1016 22H15.9531ZM17.9297 16.8672V20.4219H20.125C20.7448 20.4219 21.2292 20.2682 21.5781 19.9609C21.9271 19.6536 22.1016 19.2266 22.1016 18.6797C22.1016 17.4974 21.4974 16.8932 20.2891 16.8672H17.9297ZM17.9297 15.4141H19.8672C20.4818 15.4141 20.9609 15.276 21.3047 15C21.6536 14.7188 21.8281 14.3229 21.8281 13.8125C21.8281 13.25 21.6667 12.8438 21.3438 12.5938C21.026 12.3438 20.5286 12.2188 19.8516 12.2188H17.9297V15.4141Z" fill="#DAD4EC"/>
</svg>